<svg width="94" height="29" viewBox="0 0 94 29" fill="none" xmlns="http://www.w3.org/2000/svg">
<path d="M8.224 23L0.88 6.2H4.264L10.816 21.392H8.872L15.496 6.2H18.616L11.296 23H8.224ZM24.4683 13.928H32.8443V16.568H24.4683V13.928ZM24.7323 23H21.6123V6.2H33.8763V8.816H24.7323V23ZM42.2215 23V16.352L42.9175 18.272L35.6215 6.2H38.9575L44.8135 15.92H42.9415L48.8455 6.2H51.9175L44.6215 18.272L45.3415 16.352V23H42.2215ZM57.8057 13.928H66.1817V16.568H57.8057V13.928ZM58.0697 23H54.9497V6.2H67.2137V8.816H58.0697V23Z" fill="#03A700"/>
<path d="M78 21.75H94V24H78V21.75ZM83.2571 18.7125L78 13.5375L80.2857 11.4L83.2571 14.325L91.7143 6L94 8.25L83.2571 18.7125Z" fill="#03A700"/>
</svg>
